<svg width="237" height="180" viewBox="0 0 267 196" fill="none" xmlns="http://www.w3.org/2000/svg">
<path d="M144.923 177.689L34.6052 112.513C31.0932 110.539 28.0822 107.304 31.5052 105.182L142.215 41.3929C143.875 40.3629 146.396 39.6879 148.088 40.6729L263.874 107.863C267.386 109.901 268.016 115.58 264.517 117.637L159.461 177.587C157.256 178.866 154.755 179.548 152.206 179.565C149.656 179.583 147.146 178.937 144.923 177.689V177.689Z" fill="#5B36A0"/>
<path d="M144.923 174.681L34.6052 109.503C31.0932 107.528 28.0822 104.293 31.5052 102.171L142.215 38.3829C143.875 37.3539 146.396 36.6789 148.088 37.6629L263.874 104.853C267.386 106.892 268.016 112.57 264.517 114.628L159.461 174.577C157.256 175.856 154.755 176.538 152.206 176.556C149.657 176.574 147.147 175.927 144.923 174.68V174.681Z" fill="#6862E6"/>
<path style="mix-blend-mode:multiply" opacity="0.25" d="M154.019 88.6869L132.251 101.105C132.251 101.105 165.784 121.562 172.641 124.443L185.178 106.436" fill="url(#paint0_linear)"/>
<path style="mix-blend-mode:multiply" opacity="0.25" d="M146.499 148.263L124.725 135.87L102.951 148.288C102.951 148.288 114.291 155.208 125.131 161.562C132.013 156.694 138.902 151.774 146.499 148.262V148.263Z" fill="url(#paint1_linear)"/>
<path style="mix-blend-mode:multiply" opacity="0.46" d="M99.5872 71.7349L85.7762 79.6129C85.7762 79.6129 86.9462 86.8349 93.8042 89.7159L111.886 78.1399" fill="url(#paint2_linear)"/>
<path d="M106.347 79.6129C110.948 79.6129 114.677 76.987 114.677 73.7479C114.677 70.5087 110.948 67.8829 106.347 67.8829C101.747 67.8829 98.0172 70.5087 98.0172 73.7479C98.0172 76.987 101.747 79.6129 106.347 79.6129Z" fill="#68E1FD"/>
<path d="M106.341 72.8409C109.787 72.8409 112.581 71.6978 112.581 70.2879C112.581 68.8779 109.787 67.7349 106.341 67.7349C102.895 67.7349 100.101 68.8779 100.101 70.2879C100.101 71.6978 102.895 72.8409 106.341 72.8409Z" fill="#974C26"/>
<path d="M106.116 66.0309C106.116 64.8799 106.077 63.7279 105.987 62.5769C105.961 62.2769 105.933 61.9789 105.903 61.6829L105.839 61.0979C105.839 60.9249 105.749 60.4549 105.749 60.4999C105.71 60.2639 105.669 60.0299 105.627 59.7999C104.947 55.8918 103.428 52.1774 101.176 48.9119C100.329 50.9283 99.9058 53.0978 99.9342 55.2849C99.9342 55.9279 99.9852 56.5709 100.037 57.1749V57.5549C100.291 59.0467 100.678 60.5127 101.195 61.9349C101.564 62.9715 102.013 63.9776 102.539 64.9439C103.107 66.0317 103.723 67.0938 104.385 68.1269C104.9 68.9369 105.389 69.6569 105.885 70.3459C106.039 68.9119 106.109 67.4709 106.115 66.0309H106.116ZM102.842 53.0849C102.875 52.9367 102.875 52.783 102.842 52.6349C103 52.7979 103.157 52.9649 103.312 53.1369C103.157 53.0928 102.996 53.0752 102.835 53.0849H102.842Z" fill="#999A1C"/>
<path d="M108.258 66.9179C108.901 65.9479 109.468 64.9879 110.014 63.9409C110.155 63.6749 110.293 63.4089 110.426 63.1429L110.689 62.6089L110.94 62.0559L111.217 61.4129C112.759 57.7546 113.49 53.8057 113.359 49.8379C111.551 51.0759 110.018 52.674 108.856 54.5319C108.523 55.0679 108.212 55.6173 107.923 56.1789L107.795 56.4159L107.762 56.5189C107.64 56.8089 107.518 57.0989 107.402 57.3939C106.976 58.5144 106.63 59.664 106.367 60.8339C106.117 61.9062 105.951 62.9966 105.871 64.0949C105.758 65.3156 105.702 66.5409 105.704 67.7669C105.704 68.7249 105.704 69.5999 105.762 70.4419C106.617 69.3039 107.479 68.1339 108.258 66.9179V66.9179ZM112.503 54.2559C112.604 54.1429 112.679 54.0089 112.722 53.8629C112.769 54.0859 112.81 54.3009 112.844 54.5069C112.744 54.4069 112.629 54.3219 112.504 54.2559H112.503Z" fill="#999A1C"/>
<path d="M108.213 69.7859C108.86 69.4649 109.503 69.1179 110.143 68.7449L110.625 68.4489L110.94 68.2489L111.249 68.0309L111.609 67.7669C113.62 66.2912 115.288 64.3979 116.498 62.2169C115.125 62.305 113.785 62.675 112.561 63.3039C112.207 63.4839 111.866 63.6839 111.525 63.8889L111.378 63.9789L111.326 64.0239L110.85 64.3779C110.257 64.8449 109.698 65.3549 109.178 65.9019C108.697 66.3999 108.256 66.9359 107.858 67.5029C107.412 68.1342 106.983 68.7778 106.572 69.4329C106.264 69.9469 105.987 70.4289 105.742 70.8989C106.572 70.5519 107.402 70.1909 108.212 69.7859H108.213ZM114.593 64.3199C114.684 64.2916 114.768 64.2435 114.838 64.1789C114.791 64.3155 114.74 64.4506 114.684 64.5839C114.667 64.4941 114.637 64.4075 114.594 64.3269V64.3199H114.593ZM106.116 66.0309C106.116 64.8799 106.077 63.7279 105.987 62.5769C105.961 62.2769 105.933 61.9789 105.903 61.6829L105.839 61.0979C105.839 60.9249 105.749 60.4549 105.749 60.4999C105.71 60.2639 105.669 60.0299 105.627 59.7999C104.947 55.8918 103.428 52.1774 101.176 48.9119C100.329 50.9283 99.9058 53.0978 99.9342 55.2849C99.9342 55.9279 99.9852 56.5709 100.037 57.1749V57.5549C100.291 59.0467 100.678 60.5127 101.195 61.9349C101.564 62.9715 102.013 63.9776 102.539 64.9439C103.107 66.0317 103.723 67.0938 104.385 68.1269C104.9 68.9369 105.389 69.6569 105.885 70.3459C106.039 68.9119 106.109 67.4709 106.115 66.0309H106.116ZM102.842 53.0849C102.875 52.9367 102.875 52.783 102.842 52.6349C103 52.7979 103.157 52.9649 103.312 53.1369C103.157 53.0928 102.996 53.0752 102.835 53.0849H102.842Z" fill="#999A1C"/>
<path d="M108.258 66.9179C108.901 65.9479 109.468 64.9879 110.014 63.9409C110.155 63.6749 110.293 63.4089 110.426 63.1429L110.689 62.6089L110.94 62.0559L111.217 61.4129C112.759 57.7546 113.49 53.8057 113.359 49.8379C111.551 51.0759 110.018 52.674 108.856 54.5319C108.523 55.0679 108.212 55.6173 107.923 56.1789L107.795 56.4159L107.762 56.5189C107.64 56.8089 107.518 57.0989 107.402 57.3939C106.976 58.5144 106.63 59.664 106.367 60.8339C106.117 61.9062 105.951 62.9966 105.871 64.0949C105.758 65.3156 105.702 66.5409 105.704 67.7669C105.704 68.7249 105.704 69.5999 105.762 70.4419C106.617 69.3039 107.479 68.1339 108.258 66.9179V66.9179ZM112.503 54.2559C112.604 54.1429 112.679 54.0089 112.722 53.8629C112.769 54.0859 112.81 54.3009 112.844 54.5069C112.744 54.4069 112.629 54.3219 112.504 54.2559H112.503Z" fill="#999A1C"/>
<path d="M108.213 69.7859C108.86 69.4649 109.503 69.1179 110.143 68.7449L110.625 68.4489L110.94 68.2489L111.249 68.0309L111.609 67.7669C113.62 66.2912 115.288 64.3979 116.498 62.2169C115.125 62.305 113.785 62.675 112.561 63.3039C112.207 63.4839 111.866 63.6839 111.525 63.8889L111.378 63.9789L111.326 64.0239L110.85 64.3779C110.257 64.8449 109.698 65.3549 109.178 65.9019C108.697 66.3999 108.256 66.9359 107.858 67.5029C107.412 68.1342 106.983 68.7778 106.572 69.4329C106.264 69.9469 105.987 70.4289 105.742 70.8989C106.572 70.5519 107.402 70.1909 108.212 69.7859H108.213ZM114.593 64.3199C114.684 64.2916 114.768 64.2435 114.838 64.1789C114.791 64.3155 114.74 64.4506 114.684 64.5839C114.667 64.4941 114.637 64.4075 114.594 64.3269V64.3199H114.593Z" fill="#999A1C"/>
<path d="M162.664 83.8379L150.616 89.6259C150.162 89.8441 149.777 90.1818 149.5 90.6026C149.224 91.0235 149.067 91.5117 149.048 92.0148C149.028 92.5179 149.145 93.017 149.388 93.4583C149.63 93.8996 149.988 94.2666 150.423 94.5199L178.977 111.176C179.594 111.537 180.327 111.645 181.022 111.478C181.717 111.312 182.321 110.883 182.708 110.282L189.648 99.4909" fill="#A1482D"/>
<path d="M228.193 55.9209L132.123 0.576882C131.464 0.19802 130.717 -0.000922181 129.957 3.21371e-06C129.197 0.000928608 128.45 0.201689 127.792 0.582154C127.134 0.96262 126.587 1.50942 126.207 2.16772C125.827 2.82603 125.627 3.5727 125.626 4.33288V61.9079C125.626 63.1949 126.312 64.3839 127.426 65.0279L229.846 124.134C230.199 124.338 230.6 124.446 231.008 124.446C231.417 124.446 231.817 124.339 232.171 124.135C232.524 123.931 232.818 123.637 233.022 123.283C233.225 122.93 233.333 122.529 233.332 122.121V64.7829C233.331 62.9842 232.855 61.2177 231.952 59.6617C231.05 58.1058 229.753 56.8154 228.192 55.9209H228.193Z" fill="#F47B56"/>
<path d="M132.129 4.93089L225.298 58.5189C226.293 59.0915 227.12 59.9162 227.694 60.9098C228.269 61.9035 228.572 63.031 228.572 64.1789V107.336C228.572 107.749 228.462 108.155 228.256 108.512C228.049 108.87 227.752 109.167 227.395 109.374C227.038 109.581 226.632 109.691 226.219 109.692C225.806 109.693 225.4 109.586 225.041 109.381L130.025 54.8989C129.67 54.695 129.374 54.4008 129.169 54.0461C128.963 53.6914 128.855 53.2888 128.855 52.8789V6.82789C128.855 6.44457 128.956 6.06795 129.147 5.73579C129.338 5.40364 129.614 5.12763 129.945 4.93546C130.277 4.74329 130.653 4.64171 131.037 4.6409C131.42 4.6401 131.797 4.74011 132.129 4.93089V4.93089Z" fill="white"/>
<path d="M171.331 86.3331C172.43 86.1215 173.124 84.9322 172.883 83.6768C172.641 82.4213 171.554 81.575 170.455 81.7866C169.357 81.9982 168.662 83.1875 168.904 84.443C169.146 85.6984 170.232 86.5447 171.331 86.3331Z" fill="#AB643C"/>
<path opacity="0.32" d="M157.171 63.4839L200.468 89.4909L221.857 77.0599L183.641 54.8219" fill="url(#paint3_linear)"/>
<path d="M210.677 58.3069L163.867 29.7729C163.617 29.6281 163.332 29.553 163.043 29.5555C162.753 29.5579 162.47 29.6378 162.222 29.7868C161.974 29.9358 161.77 30.1485 161.632 30.4027C161.494 30.657 161.426 30.9437 161.436 31.2329V47.4899C161.434 47.7841 161.508 48.0739 161.651 48.331C161.795 48.5881 162.002 48.8037 162.253 48.9569L209.056 76.8869C209.302 77.0265 209.581 77.099 209.864 77.0972C210.147 77.0954 210.424 77.0193 210.668 76.8765C210.913 76.7337 211.115 76.5293 211.255 76.2836C211.396 76.038 211.469 75.7598 211.468 75.4769L211.712 60.3199C211.73 59.9232 211.644 59.5287 211.463 59.1756C211.281 58.8225 211.01 58.523 210.677 58.3069V58.3069Z" fill="#E2AC00"/>
<path d="M199.478 66.6729C201.157 69.0209 204.109 69.6769 206.065 68.1459C208.02 66.6159 208.245 63.4709 206.566 61.1299C204.887 58.7899 201.935 58.1269 199.979 59.6579C198.024 61.1879 197.799 64.3269 199.478 66.6739V66.6729Z" fill="white"/>
<path d="M194.885 55.4069L175.793 43.9149C175.63 43.8399 175.444 43.8283 175.272 43.8823C175.1 43.9364 174.955 44.0522 174.864 44.2074C174.772 44.3626 174.742 44.5461 174.778 44.7225C174.815 44.8988 174.915 45.0554 175.06 45.1619L194.152 56.6539C194.316 56.7289 194.502 56.7405 194.673 56.6864C194.845 56.6324 194.991 56.5166 195.082 56.3614C195.173 56.2062 195.203 56.0226 195.167 55.8463C195.131 55.67 195.03 55.5134 194.885 55.4069V55.4069ZM194.1 60.0759L167.785 44.2359C167.624 44.1793 167.448 44.1812 167.288 44.2415C167.128 44.3018 166.994 44.4164 166.911 44.5654C166.827 44.7144 166.798 44.8881 166.83 45.056C166.861 45.224 166.951 45.3755 167.083 45.4839L193.367 61.3299C193.531 61.4061 193.718 61.4185 193.89 61.3647C194.063 61.3109 194.209 61.1948 194.301 61.0389C194.392 60.883 194.422 60.6986 194.385 60.5217C194.348 60.3447 194.247 60.1879 194.1 60.0819V60.0759Z" fill="#F2F2F2"/>
<path d="M201.337 61.4579L154.553 32.9309C154.303 32.7858 154.018 32.7106 153.728 32.7129C153.439 32.7152 153.155 32.795 152.907 32.944C152.659 33.0931 152.455 33.3058 152.317 33.5603C152.179 33.8147 152.111 34.1015 152.121 34.3909V50.6409C152.114 51.2409 152.421 51.7999 152.931 52.1139L199.735 80.0439C199.984 80.1866 200.266 80.2607 200.552 80.2585C200.839 80.2562 201.12 80.1778 201.366 80.0312C201.612 79.8847 201.815 79.6752 201.953 79.4244C202.092 79.1735 202.161 78.8903 202.154 78.6039L202.398 63.4449C202.409 63.0501 202.317 62.6593 202.131 62.3109C201.945 61.9625 201.671 61.6686 201.337 61.4579Z" fill="#F47B56"/>
<path d="M190.138 69.8249C191.817 72.1719 194.769 72.8279 196.725 71.2979C198.68 69.7679 198.905 66.6219 197.226 64.2809C195.547 61.9409 192.595 61.2779 190.639 62.8089C188.684 64.3389 188.459 67.4779 190.138 69.8249Z" fill="white"/>
<path d="M185.545 58.5579L166.439 47.0659C166.275 46.9896 166.089 46.9772 165.916 47.031C165.744 47.0848 165.597 47.201 165.506 47.3569C165.414 47.5128 165.384 47.6972 165.421 47.8741C165.458 48.0511 165.56 48.2078 165.706 48.3139L184.798 59.8059C184.962 59.8821 185.149 59.8945 185.321 59.8407C185.494 59.7869 185.64 59.6707 185.732 59.5149C185.823 59.359 185.853 59.1746 185.816 58.9976C185.779 58.8207 185.678 58.6639 185.531 58.5579H185.544H185.545ZM184.754 63.2589L158.444 47.3939C158.28 47.3176 158.094 47.3052 157.921 47.359C157.749 47.4128 157.602 47.529 157.511 47.6849C157.419 47.8408 157.389 48.0252 157.426 48.2021C157.463 48.3791 157.565 48.5358 157.711 48.6419L184.027 64.4809C184.191 64.5571 184.378 64.5695 184.55 64.5157C184.723 64.4619 184.869 64.3457 184.961 64.1899C185.052 64.034 185.082 63.8496 185.045 63.6726C185.008 63.4957 184.907 63.3389 184.76 63.2329L184.754 63.2589Z" fill="#F2F2F2"/>
<path d="M189.597 63.3749L142.801 34.8469C142.551 34.7019 142.266 34.6266 141.976 34.6289C141.687 34.6312 141.403 34.711 141.155 34.86C140.907 35.0091 140.703 35.2219 140.565 35.4763C140.427 35.7307 140.359 36.0175 140.369 36.3069V52.5579C140.367 52.852 140.442 53.1415 140.585 53.3984C140.728 53.6553 140.935 53.8708 141.186 54.0239L187.989 81.9539C188.238 82.0966 188.52 82.1707 188.806 82.1685C189.093 82.1663 189.374 82.0878 189.62 81.9412C189.866 81.7947 190.069 81.5852 190.207 81.3344C190.346 81.0835 190.415 80.8004 190.408 80.5139L190.652 65.3549C190.673 64.5549 190.272 63.8039 189.597 63.3749V63.3749Z" fill="#68E1FD"/>
<path d="M189.597 63.3749L142.801 34.8469C142.551 34.7019 142.266 34.6266 141.976 34.6289C141.687 34.6312 141.403 34.711 141.155 34.86C140.907 35.0091 140.703 35.2219 140.565 35.4763C140.427 35.7307 140.359 36.0175 140.369 36.3069V52.5579C140.367 52.852 140.442 53.1415 140.585 53.3984C140.728 53.6553 140.935 53.8708 141.186 54.0239L187.989 81.9539C188.238 82.0966 188.52 82.1707 188.806 82.1685C189.093 82.1663 189.374 82.0878 189.62 81.9412C189.866 81.7947 190.069 81.5852 190.207 81.3344C190.346 81.0835 190.415 80.8004 190.408 80.5139L190.652 65.3549C190.673 64.5549 190.272 63.8039 189.597 63.3749V63.3749Z" fill="#68E1FD"/>
<path d="M178.392 71.7409C180.071 74.0889 183.023 74.7449 184.979 73.2139C186.934 71.6839 187.159 68.5389 185.48 66.1979C183.802 63.8579 180.849 63.1949 178.894 64.7249C176.938 66.2549 176.732 69.3949 178.392 71.7409V71.7409Z" fill="white"/>
<path d="M173.799 60.4739L154.701 48.9829C154.537 48.9057 154.35 48.8927 154.177 48.9462C154.004 48.9997 153.857 49.116 153.765 49.2722C153.673 49.4284 153.643 49.6133 153.68 49.7907C153.718 49.968 153.82 50.125 153.967 50.2309L173.059 61.7229C173.223 61.8 173.41 61.8131 173.583 61.7596C173.756 61.7061 173.903 61.5898 173.995 61.4336C174.087 61.2773 174.117 61.0924 174.08 60.9151C174.043 60.7377 173.94 60.5807 173.793 60.4749H173.799V60.4739ZM173.008 65.1499L146.692 49.3099C146.528 49.2337 146.342 49.2212 146.169 49.275C145.997 49.3288 145.85 49.445 145.759 49.6009C145.667 49.7568 145.637 49.9412 145.674 50.1181C145.711 50.2951 145.813 50.4518 145.959 50.5579L172.274 66.3979C172.438 66.475 172.625 66.4881 172.798 66.4346C172.971 66.3811 173.118 66.2648 173.21 66.1086C173.302 65.9523 173.332 65.7674 173.295 65.5901C173.258 65.4127 173.155 65.2557 173.008 65.1499Z" fill="#F2F2F2"/>
<path d="M128.179 61.7799C125.155 64.3818 122.868 67.7327 121.547 71.4969C119.219 77.9269 125.04 88.4359 125.04 88.4359L134.097 81.2659" fill="#FF8F6F"/>
<path d="M127.202 146.803L124.744 145.446L125.388 141.935C125.388 141.935 129.048 142.282 129.369 143.581" fill="#003B94"/>
<path d="M128.102 146.751C128.655 146.411 129.234 146.108 129.807 145.806C131.228 145.028 133.28 144.224 134.155 142.764C134.334 142.469 134.419 142.126 134.399 141.781C134.378 141.437 134.253 141.106 134.039 140.835C132.753 139.279 129.935 141.838 128.495 140.115C128.212 139.774 128.076 134.365 128.076 134.365L122.596 135.845C122.596 135.845 121.67 146.713 121.773 147.382C121.875 148.05 123.76 148.668 123.76 148.668C124.322 148.549 124.858 148.331 125.343 148.025C125.915 147.607 125.394 142.507 126.127 143.221C126.861 143.935 127.182 146.726 127.182 146.726C127.487 146.772 127.796 146.78 128.102 146.751V146.751Z" fill="#F47B56"/>
<path d="M137.667 152.057L135.21 150.719L135.853 147.208C135.853 147.208 139.513 147.555 139.835 148.854" fill="#003B94"/>
<path d="M138.594 152.005C139.147 151.665 139.726 151.362 140.298 151.06C141.72 150.282 143.772 149.478 144.647 148.018C144.826 147.723 144.911 147.38 144.891 147.035C144.87 146.691 144.745 146.36 144.531 146.089C143.244 144.533 140.427 147.092 138.986 145.369C138.703 145.028 138.568 139.619 138.568 139.619L133.088 141.099C133.088 141.099 132.155 152.005 132.258 152.649C132.36 153.292 134.245 153.935 134.245 153.935C134.807 153.816 135.343 153.598 135.828 153.292C136.4 152.874 135.879 147.774 136.612 148.488C137.346 149.202 137.667 151.993 137.667 151.993C137.974 152.035 138.286 152.039 138.594 152.005Z" fill="#F47B56"/>
<path d="M119.811 116.726L118.196 138.314C118.196 138.314 120.769 141.864 129.396 139.89L129.479 125.337L119.811 116.726ZM129.775 121.003C129.588 122.861 129.775 143.363 129.775 143.363C129.775 143.363 132.161 147.825 142.55 143.363L142.402 125.941" fill="#3E2928"/>
<path d="M119.007 123.857C119.714 124.347 119.959 121.832 120.698 122.263C123.39 123.826 126.246 125.085 129.215 126.018H129.279C129.35 125.983 129.427 125.964 129.506 125.96C129.584 125.956 129.663 125.968 129.737 125.995C129.811 126.022 129.878 126.063 129.936 126.117C129.993 126.171 130.039 126.236 130.071 126.308C131.905 126.855 133.771 127.284 135.661 127.594C138.085 127.98 140.092 126.185 142.581 126.064C142.581 116.533 142.627 89.4069 138.568 83.6189L126.558 79.5809C126.5 80.5709 120.73 87.2589 120.872 95.4139C121.032 104.604 119.836 113.272 119.63 116.147C119.598 116.636 119.032 123.337 119.007 123.857V123.857Z" fill="#3E2928"/>
<path d="M139.674 72.6609L138.568 83.5939C138.568 83.5939 129.608 83.9539 125.748 81.2909V72.0179" fill="#FF8F6F"/>
<path d="M151.066 65.4649L150.153 66.7119C150.64 65.6972 151.069 64.6558 151.439 63.5929C151.697 62.8669 150.532 62.5769 150.275 63.3039L150.14 63.6769C150.252 63.2909 150.357 62.9029 150.455 62.5129C150.477 62.4357 150.482 62.3549 150.472 62.2755C150.462 62.196 150.436 62.1194 150.395 62.0502C150.355 61.981 150.301 61.9206 150.237 61.8725C150.173 61.8244 150.1 61.7897 150.022 61.7703C149.944 61.7509 149.863 61.7473 149.784 61.7597C149.705 61.7721 149.629 61.8002 149.561 61.8424C149.493 61.8846 149.434 61.94 149.388 62.0053C149.341 62.0707 149.309 62.1446 149.291 62.2229C149.039 63.2324 148.736 64.2286 148.384 65.2079C148.581 64.3386 148.723 63.4579 148.809 62.5709C148.886 61.8059 147.683 61.8379 147.612 62.5709C147.512 63.5809 147.332 64.5809 147.072 65.5609C147.072 65.2156 147.039 64.8711 146.975 64.5319C146.966 64.4466 146.94 64.3641 146.897 64.29C146.853 64.2158 146.795 64.1517 146.725 64.1019C146.693 63.9669 146.654 63.8334 146.609 63.7019C146.564 63.5671 146.472 63.4527 146.351 63.3787C146.229 63.3048 146.085 63.276 145.945 63.2975C145.804 63.319 145.675 63.3894 145.582 63.4962C145.488 63.6031 145.434 63.7396 145.431 63.8819L145.354 68.3839C145.136 68.8509 144.853 69.2839 144.512 69.6709C145.09 70.0709 145.649 70.5009 146.184 70.9569C146.662 71.3599 147.117 71.7899 147.548 72.2429C147.934 71.7629 148.305 71.2739 148.661 70.7769C148.705 70.7392 148.744 70.6959 148.776 70.6479C149.848 69.0626 150.955 67.5015 152.096 65.9659C152.572 65.4389 151.523 64.8539 151.066 65.4649V65.4649Z" fill="#FFB5A9"/>
<path d="M133.988 62.6929C133.988 62.6929 138.221 63.8309 139.938 66.5519C141.014 68.4344 141.962 70.3872 142.775 72.3969L145.901 67.5419C145.901 67.5419 149.696 68.7059 151.201 70.5709C151.201 70.5709 146.699 80.4109 142.775 81.2529C138.851 82.0949 134.683 75.4779 134.683 75.4779C134.683 75.4779 133.821 78.2429 133.988 75.2909" fill="#FF8F6F"/>
<path d="M136.677 73.2079C135.447 72.2073 134.518 70.8849 133.994 69.3879C133.486 67.6579 134.123 66.1399 134.714 64.5319C135.355 62.9383 135.729 61.25 135.821 59.5349C135.873 57.8509 135.68 56.1649 135.564 54.4869C135.548 54.4151 135.548 54.3406 135.564 54.2689C134.998 52.3709 133.84 50.7639 131.556 50.5709C125.645 50.0689 125.31 56.6159 125.356 59.2779C125.4 61.9409 125.684 63.7409 123.722 64.8539C121.76 65.9659 120.344 68.8859 122.216 71.2459C124.088 73.6059 122.409 72.7449 121.161 74.8409C119.914 76.9379 120.235 79.5549 122.795 80.5009C125.355 81.4459 137.255 79.6709 138.349 78.5709C138.737 78.1278 138.938 77.5512 138.909 76.9629C138.642 75.4831 137.849 74.1496 136.677 73.2079Z" fill="#007F68"/>
<path d="M142.492 19.2129C143.494 20.6546 144.073 22.3476 144.164 24.1009C144.276 24.9036 144.081 25.719 143.617 26.3839C143.42 26.6007 143.156 26.7457 142.867 26.7959C142.578 26.846 142.281 26.7985 142.022 26.6609C141.697 26.531 141.403 26.3333 141.16 26.0809C140.942 25.8764 140.756 25.6404 140.607 25.3809L140.453 25.0789C140.411 25.1579 140.359 25.2309 140.298 25.2969C140.145 25.4169 139.963 25.4939 139.771 25.5219C139.449 25.5819 139.117 25.5419 138.819 25.4069C138.108 25.0992 137.516 24.5685 137.133 23.8949C136.672 23.1635 136.414 22.3222 136.387 21.4579C136.292 20.7579 136.511 20.0519 136.985 19.5279C137.189 19.3313 137.449 19.2024 137.729 19.1587C138.009 19.115 138.295 19.1587 138.549 19.2839C138.807 19.3869 139.044 19.5349 139.249 19.7219C139.425 19.8709 139.581 20.0419 139.713 20.2299L139.829 20.4359V19.8629L141.115 20.3649L141.244 23.9789C141.253 24.2379 141.333 24.4889 141.475 24.7059C141.596 24.9149 141.781 25.0789 142.003 25.1759C142.625 25.4199 142.912 24.8839 142.865 23.5669C142.8 22.2634 142.37 21.0044 141.623 19.9339C140.952 18.8447 139.955 17.9945 138.773 17.5039C138.345 17.2861 137.86 17.2021 137.383 17.2627C136.906 17.3233 136.459 17.5258 136.098 17.8439C135.714 18.2298 135.421 18.6971 135.242 19.2114C135.063 19.7257 135.001 20.2737 135.062 20.8149C135.136 22.1937 135.58 23.527 136.349 24.6739C136.961 25.8066 137.925 26.7094 139.095 27.2459C139.503 27.4159 139.94 27.5009 140.382 27.4959C140.669 27.5159 140.957 27.4629 141.218 27.3419L141.475 27.2009L142.254 28.6479L142.125 28.7379C142.003 28.8059 141.876 28.8669 141.745 28.9179C141.54 29.0069 141.324 29.0679 141.102 29.0979C140.818 29.1359 140.531 29.1359 140.247 29.0979C139.874 29.0533 139.509 28.9602 139.16 28.8209C138.17 28.3951 137.29 27.7487 136.587 26.9309C135.755 26.0107 135.081 24.9588 134.593 23.8179C134.105 22.7287 133.825 21.5573 133.769 20.3649C133.7 19.3624 133.905 18.36 134.361 17.4649C134.74 16.7136 135.395 16.1376 136.188 15.8569C137.019 15.5831 137.923 15.6287 138.722 15.9849C140.283 16.6445 141.601 17.7728 142.492 19.2139V19.2129ZM139.655 23.7859C139.866 23.5159 139.961 23.1739 139.919 22.8339C139.909 22.4146 139.792 22.0049 139.578 21.6439C139.404 21.3288 139.13 21.0802 138.799 20.9369C138.673 20.8718 138.529 20.8468 138.388 20.8652C138.247 20.8836 138.115 20.9446 138.009 21.0399C137.898 21.1661 137.815 21.3146 137.766 21.4756C137.717 21.6365 137.703 21.8061 137.725 21.9729C137.74 22.3969 137.866 22.8089 138.092 23.1689C138.277 23.4949 138.564 23.7529 138.909 23.9019C139.156 24.0289 139.457 23.9819 139.655 23.7859V23.7859ZM218.441 88.8479C219.445 90.2885 220.024 91.9816 220.113 93.7349C220.225 94.5375 220.03 95.3529 219.567 96.0179C219.369 96.2341 219.105 96.3785 218.816 96.4287C218.528 96.4788 218.23 96.4317 217.971 96.2949C217.647 96.1632 217.353 95.9657 217.109 95.7149C216.892 95.5093 216.706 95.2735 216.556 95.0149L216.402 94.7129C216.359 94.7909 216.307 94.864 216.247 94.9309C216.095 95.0509 215.913 95.1299 215.72 95.1559C215.401 95.2199 215.07 95.1819 214.774 95.0469C214.062 94.7375 213.471 94.2046 213.089 93.5289C212.624 92.7968 212.363 91.953 212.336 91.0859C212.237 90.3859 212.456 89.6779 212.935 89.1559C213.138 88.9601 213.396 88.8316 213.675 88.7879C213.953 88.7443 214.238 88.7875 214.491 88.9119C214.749 89.0139 214.987 89.1619 215.192 89.3489C215.368 89.5009 215.523 89.6739 215.656 89.8639L215.778 90.0689V89.4969L217.064 89.9919L217.193 93.6059C217.204 93.8649 217.284 94.1159 217.424 94.3329C217.545 94.5429 217.73 94.7069 217.952 94.8029C218.595 95.0469 218.859 94.5129 218.82 93.1949C218.755 91.8894 218.325 90.6283 217.579 89.5549C216.908 88.4696 215.914 87.6219 214.736 87.1309C214.308 86.9129 213.824 86.8282 213.347 86.8877C212.87 86.9473 212.422 87.1483 212.06 87.4649C211.678 87.8552 211.388 88.3268 211.214 88.8445C211.039 89.3622 210.983 89.9126 211.05 90.4549C211.122 91.8338 211.567 93.1674 212.336 94.3139C212.972 95.4199 213.947 96.2924 215.116 96.8029C215.523 96.9729 215.96 97.0599 216.402 97.0599C216.689 97.0769 216.976 97.0239 217.238 96.9049L217.495 96.7639L218.274 98.2109L218.144 98.3009C218.023 98.3699 217.896 98.4299 217.765 98.4809C217.559 98.566 217.343 98.6265 217.122 98.6609C216.836 98.6988 216.546 98.6988 216.26 98.6609C215.889 98.6139 215.526 98.5188 215.18 98.3779C214.19 97.9538 213.31 97.3095 212.607 96.4939C211.774 95.5714 211.1 94.5171 210.612 93.3739C210.124 92.285 209.845 91.114 209.789 89.9219C209.719 88.9213 209.924 87.9207 210.381 87.0279C210.761 86.2756 211.415 85.6976 212.208 85.4129C213.042 85.1424 213.946 85.1886 214.748 85.5429C216.291 86.2366 217.581 87.3912 218.441 88.8479V88.8479ZM215.604 93.4199C215.817 93.1509 215.914 92.8089 215.874 92.4679C215.863 92.0479 215.744 91.638 215.527 91.2779C215.356 90.9627 215.084 90.7138 214.755 90.5709C214.629 90.5048 214.486 90.4787 214.345 90.496C214.203 90.5134 214.071 90.5733 213.964 90.6679C213.851 90.793 213.767 90.9411 213.717 91.102C213.667 91.2629 213.652 91.4328 213.674 91.5999C213.689 92.0219 213.816 92.4329 214.041 92.7899C214.226 93.1179 214.513 93.3779 214.858 93.5299C214.978 93.5924 215.115 93.6155 215.249 93.5957C215.383 93.576 215.507 93.5144 215.604 93.4199" fill="#F47B56"/>
<path style="mix-blend-mode:multiply" opacity="0.25" d="M90.2532 116.269L68.4792 103.883L46.7112 116.295C46.7112 116.295 58.8242 123.857 69.6622 130.211C76.5452 125.349 82.6622 119.787 90.2532 116.269V116.269Z" fill="url(#paint4_linear)"/>
<g filter="url(#filter0_d)">
<path d="M50.9292 81.4709V108.406L71.9132 120.423L95.6072 106.41V79.4759" fill="black"/>
</g>
<path d="M50.9292 81.4709V108.406L71.9132 120.423L95.6072 106.41V79.4759" fill="#FF9271"/>
<path d="M71.9132 93.4889V120.424L95.6072 106.411V79.4759L71.9132 93.4889Z" fill="#DF5C34"/>
<path d="M50.9292 81.4709L75.2762 67.5929L95.6062 79.4759L71.9132 93.4889L50.9292 81.4709Z" fill="#F47B56"/>
<path d="M72.4702 73.7749C74.939 73.6083 77.404 74.1513 79.5742 75.3399C80.8172 76.0709 81.4962 76.8339 81.5922 77.6299C81.6882 78.4249 81.2782 79.1169 80.3112 79.6999C79.8524 79.9833 79.3469 80.1831 78.8182 80.2899C78.3842 80.3929 77.9382 80.4389 77.4922 80.4249L77.0052 80.3869C77.0512 80.4959 77.0812 80.6099 77.0952 80.7269C77.0801 81.0036 76.9917 81.2714 76.8392 81.5029C76.5852 81.9329 76.2232 82.2889 75.7892 82.5349C74.7769 83.1364 73.6166 83.4429 72.4392 83.4199C71.2209 83.4529 70.017 83.1491 68.9602 82.5419C67.9612 81.9519 67.4492 81.2589 67.4102 80.4639C67.4141 80.0429 67.5362 79.6314 67.7627 79.2766C67.9893 78.9217 68.311 78.6376 68.6912 78.4569C69.0563 78.2291 69.4538 78.0581 69.8702 77.9499C70.202 77.8541 70.5435 77.796 70.8882 77.7769H71.2412L70.6002 77.3919L72.4002 76.2699L76.5702 78.7259C76.8891 78.8976 77.2456 78.9875 77.6077 78.9875C77.9699 78.9875 78.3264 78.8976 78.6452 78.7259C79.5292 78.1749 79.2132 77.4499 77.6972 76.5519C76.0861 75.6645 74.2546 75.2571 72.4192 75.3779C70.474 75.4017 68.5711 75.9489 66.9102 76.9619C65.3992 77.9069 64.6502 79.0339 64.6622 80.3419C64.6622 81.6249 65.4622 82.7659 67.0192 83.6829C68.7192 84.6329 70.6482 85.0929 72.5922 85.0109C74.5285 85.0427 76.4356 84.5366 78.1012 83.5489C78.6774 83.207 79.1942 82.7737 79.6312 82.2659C79.9242 81.9559 80.1432 81.5829 80.2722 81.1759L80.3622 80.7719L82.7382 80.9059C82.7422 80.9789 82.7422 81.0519 82.7382 81.1249C82.6952 81.3209 82.6372 81.5139 82.5652 81.7019C82.4622 82.0019 82.3252 82.2919 82.1552 82.5609C81.9112 82.9249 81.6282 83.2609 81.3102 83.5609C80.8902 83.9659 80.4302 84.3229 79.9332 84.6259C78.5032 85.4843 76.9192 86.055 75.2702 86.3059C73.4732 86.6197 71.6382 86.6521 69.8312 86.4019C68.1886 86.2085 66.6011 85.6897 65.1612 84.8759C63.9992 84.2602 63.0687 83.2834 62.5102 82.0929C62.2819 81.5734 62.1641 81.0122 62.1641 80.4449C62.1641 79.8775 62.2819 79.3163 62.5102 78.7969C63.0636 77.5842 63.9849 76.5765 65.1432 75.9169C67.3501 74.5605 69.8803 73.8208 72.4702 73.7749V73.7749ZM74.8022 80.4059C74.7603 80.1867 74.6655 79.9811 74.5261 79.8068C74.3866 79.6325 74.2068 79.4949 74.0022 79.4059C73.4973 79.1086 72.9222 78.9515 72.3362 78.9509C71.792 78.9302 71.2535 79.0681 70.7862 79.3479C70.4022 79.5349 70.1552 79.9209 70.1462 80.3479C70.2042 80.7929 70.4912 81.1749 70.9012 81.3549C71.4173 81.6498 72.004 81.7984 72.5982 81.7849C73.1695 81.7993 73.7333 81.6527 74.2252 81.3619C74.5982 81.1919 74.8352 80.8159 74.8282 80.4059" fill="#3E2928"/>
<defs>
<filter id="filter0_d" x="0.92923" y="54.4759" width="144.678" height="140.947" filterUnits="userSpaceOnUse" color-interpolation-filters="sRGB">
<feFlood flood-opacity="0" result="BackgroundImageFix"/>
<feColorMatrix in="SourceAlpha" type="matrix" values="0 0 0 0 0 0 0 0 0 0 0 0 0 0 0 0 0 0 127 0"/>
<feOffset dy="25"/>
<feGaussianBlur stdDeviation="25"/>
<feColorMatrix type="matrix" values="0 0 0 0 0.209139 0 0 0 0 0.0691446 0 0 0 0 0.478091 0 0 0 0.497159 0"/>
<feBlend mode="normal" in2="BackgroundImageFix" result="effect1_dropShadow"/>
<feBlend mode="normal" in="SourceGraphic" in2="effect1_dropShadow" result="shape"/>
</filter>
<linearGradient id="paint0_linear" x1="164.632" y1="101.866" x2="157.637" y2="111.343" gradientUnits="userSpaceOnUse">
<stop stop-color="#78B46A"/>
<stop offset="0.03" stop-color="#7F3500"/>
<stop offset="1" stop-color="white"/>
</linearGradient>
<linearGradient id="paint1_linear" x1="138.742" y1="143.213" x2="124.061" y2="159.307" gradientUnits="userSpaceOnUse">
<stop stop-color="#78B46A"/>
<stop offset="0.03" stop-color="#7F3500"/>
<stop offset="1" stop-color="white"/>
</linearGradient>
<linearGradient id="paint2_linear" x1="106.837" y1="75.6808" x2="95.8337" y2="87.7446" gradientUnits="userSpaceOnUse">
<stop stop-color="#78B46A"/>
<stop offset="0.03" stop-color="#7F3500"/>
<stop offset="1" stop-color="white"/>
</linearGradient>
<linearGradient id="paint3_linear" x1="209.577" y1="75.8167" x2="202.978" y2="71.0059" gradientUnits="userSpaceOnUse">
<stop stop-color="white" stop-opacity="0"/>
<stop offset="0.99" stop-color="#DC841E"/>
</linearGradient>
<linearGradient id="paint4_linear" x1="82.4953" y1="111.15" x2="67.601" y2="127.479" gradientUnits="userSpaceOnUse">
<stop stop-color="#78B46A"/>
<stop offset="0.03" stop-color="#7F3500"/>
<stop offset="1" stop-color="white"/>
</linearGradient>
</defs>
</svg>
